<?xml version="1.0" encoding="UTF-8" standalone="no"?>
<!-- Created with Inkscape (http://www.inkscape.org/) -->

<svg
   width="240mm"
   height="120mm"
   viewBox="0 0 240 120"
   version="1.1"
   id="svg8"
   inkscape:version="1.2.2 (b0a8486541, 2022-12-01)"
   sodipodi:docname="figurefigure.svg"
   xmlns:inkscape="http://www.inkscape.org/namespaces/inkscape"
   xmlns:sodipodi="http://sodipodi.sourceforge.net/DTD/sodipodi-0.dtd"
   xmlns="http://www.w3.org/2000/svg"
   xmlns:svg="http://www.w3.org/2000/svg"
   xmlns:rdf="http://www.w3.org/1999/02/22-rdf-syntax-ns#"
   xmlns:cc="http://creativecommons.org/ns#"
   xmlns:dc="http://purl.org/dc/elements/1.1/">
  <defs
     id="defs2">
    <inkscape:path-effect
       effect="spiro"
       id="path-effect2318"
       is_visible="true"
       lpeversion="1" />
  </defs>
  <sodipodi:namedview
     id="base"
     pagecolor="#ffffff"
     bordercolor="#666666"
     borderopacity="1.0"
     inkscape:pageopacity="0.0"
     inkscape:pageshadow="2"
     inkscape:zoom="0.99437388"
     inkscape:cx="411.3141"
     inkscape:cy="183.53258"
     inkscape:document-units="mm"
     inkscape:current-layer="layer1"
     showgrid="false"
     showborder="true"
     width="200mm"
     showguides="true"
     inkscape:guide-bbox="true"
     inkscape:window-width="630"
     inkscape:window-height="1048"
     inkscape:window-x="645"
     inkscape:window-y="26"
     inkscape:window-maximized="1"
     inkscape:showpageshadow="2"
     inkscape:pagecheckerboard="0"
     inkscape:deskcolor="#d1d1d1">
    <inkscape:grid
       type="xygrid"
       id="grid815"
       units="mm"
       spacingx="10"
       spacingy="10"
       empspacing="4"
       dotted="false" />
  </sodipodi:namedview>
  <metadata
     id="metadata5">
    <rdf:RDF>
      <cc:Work
         rdf:about="">
        <dc:format>image/svg+xml</dc:format>
        <dc:type
           rdf:resource="http://purl.org/dc/dcmitype/StillImage" />
        <dc:title />
      </cc:Work>
    </rdf:RDF>
  </metadata>
  <g
     inkscape:label="Layer 1"
     inkscape:groupmode="layer"
     id="layer1"
     transform="translate(0,-177)">
    <path
       style="opacity:0.174426;fill:#0d0b0b;fill-rule:evenodd;stroke:#e3a9a9;stroke-width:49.9999"
       d="m 68.379024,227.96981 c -0.69441,-0.47641 -1.235221,-1.17313 -1.524505,-1.964 -0.289285,-0.79088 -0.325654,-1.67211 -0.102522,-2.48413 0.223132,-0.81203 0.704694,-1.55094 1.357486,-2.08295 0.652792,-0.53201 1.473682,-0.85455 2.314027,-0.90923 1.019223,-0.0663 2.034505,0.25444 2.928374,0.74862 0.893868,0.49418 1.681823,1.1566 2.453759,1.82543 1.253352,1.08594 2.481643,2.20071 3.744076,3.27608 2.255094,1.92094 4.676697,3.74679 7.488172,4.6801 4.06164,1.34831 8.518572,0.69789 12.636282,-0.46801 2.035917,-0.57646 4.111197,-1.31978 5.615277,-2.80807 0.235,-0.23254 0.45404,-0.48155 0.70117,-0.70116 0.37533,-0.33355 0.81777,-0.59781 1.30165,-0.73194 0.48388,-0.13413 1.01017,-0.13352 1.48174,0.039 0.39417,0.14418 0.73833,0.40172 1.03864,0.69493 0.30031,0.2932 0.56137,0.6235 0.83341,0.94311 0.75412,0.88596 1.60308,1.69908 2.57406,2.34004 1.13404,0.7486 2.42352,1.25623 3.49105,2.09696 0.61455,0.48399 1.15888,1.07994 1.87122,1.40321 0.47714,0.21653 1.0146,0.29822 1.53453,0.23323"
       id="path2316"
       inkscape:path-effect="#path-effect2318"
       inkscape:original-d="m 68.379024,227.96981 c 0.077,-1.53634 1.326288,-7.32061 2.044486,-7.44031 2.906374,-0.4844 3.311252,0.68324 5.382133,2.57405 1.224658,1.11817 2.465562,2.21991 3.744076,3.27608 2.242111,1.85218 4.742786,3.68178 7.488172,4.6801 2.72602,0.99128 9.878242,0.69327 12.636282,-0.46801 1.681457,-0.70799 3.930657,-1.96582 5.615277,-2.80807 0.29564,-0.14781 0.44307,-0.49467 0.70117,-0.70116 0.78989,-0.6319 1.7384,-0.90197 2.78339,-0.69297 0.67466,0.13493 1.47194,1.26461 1.87205,1.63804 0.84771,0.7912 1.65169,1.63729 2.57406,2.34004 1.01772,0.77541 2.37324,1.53807 3.49105,2.09696 0.66428,0.33213 1.11045,1.14934 1.87122,1.40321 0.49023,0.16359 1.00784,0.23323 1.53453,0.23323" />
  </g>
</svg>
