<?xml version="1.0" encoding="UTF-8" standalone="no"?>
<!-- Created with Inkscape (http://www.inkscape.org/) -->

<svg
   width="240mm"
   height="120mm"
   viewBox="0 0 240 120"
   version="1.1"
   id="svg8"
   inkscape:version="1.2.2 (b0a8486541, 2022-12-01)"
   sodipodi:docname="figure.svg"
   xmlns:inkscape="http://www.inkscape.org/namespaces/inkscape"
   xmlns:sodipodi="http://sodipodi.sourceforge.net/DTD/sodipodi-0.dtd"
   xmlns="http://www.w3.org/2000/svg"
   xmlns:svg="http://www.w3.org/2000/svg"
   xmlns:rdf="http://www.w3.org/1999/02/22-rdf-syntax-ns#"
   xmlns:cc="http://creativecommons.org/ns#"
   xmlns:dc="http://purl.org/dc/elements/1.1/">
  <defs
     id="defs2" />
  <sodipodi:namedview
     id="base"
     pagecolor="#ffffff"
     bordercolor="#666666"
     borderopacity="1.0"
     inkscape:pageopacity="0.0"
     inkscape:pageshadow="2"
     inkscape:zoom="0.99437388"
     inkscape:cx="284.6012"
     inkscape:cy="183.53258"
     inkscape:document-units="mm"
     inkscape:current-layer="layer1"
     showgrid="false"
     showborder="true"
     width="200mm"
     showguides="true"
     inkscape:guide-bbox="true"
     inkscape:window-width="630"
     inkscape:window-height="1048"
     inkscape:window-x="645"
     inkscape:window-y="26"
     inkscape:window-maximized="1"
     inkscape:showpageshadow="2"
     inkscape:pagecheckerboard="0"
     inkscape:deskcolor="#d1d1d1">
    <inkscape:grid
       type="xygrid"
       id="grid815"
       units="mm"
       spacingx="10"
       spacingy="10"
       empspacing="4"
       dotted="false" />
  </sodipodi:namedview>
  <metadata
     id="metadata5">
    <rdf:RDF>
      <cc:Work
         rdf:about="">
        <dc:format>image/svg+xml</dc:format>
        <dc:type
           rdf:resource="http://purl.org/dc/dcmitype/StillImage" />
        <dc:title />
      </cc:Work>
    </rdf:RDF>
  </metadata>
  <g
     inkscape:label="Layer 1"
     inkscape:groupmode="layer"
     id="layer1"
     transform="translate(0,-177)">
    <path
       style="fill:#000000;stroke-width:0.264583"
       d="m 29.2956,230.27754 c 0.654601,-5.25967 1.688378,-10.39969 2.872804,-15.54713 0.516472,-2.24454 0.945306,-4.50856 1.453729,-6.75494 0.103304,-0.45642 0.432504,-1.13972 0.907815,-1.37584 2.097301,-1.04187 6.718265,5.04722 7.697573,6.08414 4.384802,4.64274 9.007482,8.83946 13.611865,13.29247 4.041658,3.90878 9.536599,13.22837 16.396697,12.6567 1.112957,-0.0927 2.27716,-0.20257 3.276066,-0.70202 1.089794,-0.5449 1.90523,-1.52186 2.80807,-2.34006 1.594435,-1.44496 3.136678,-2.94677 4.680101,-4.4461 3.741827,-3.63491 5.885931,-6.10541 8.481618,-10.6047 0.05959,-0.10329 2.042901,-3.36313 2.340041,-4.21209 0.777952,-2.22269 1.171445,-4.46025 1.404054,-6.78615 0.05208,-0.52079 -0.338714,-1.42307 0.166071,-1.56133 2.521333,-0.69061 6.210876,1.32448 7.928456,3.04206 2.95939,2.95939 -4.569692,-2.58792 3.74407,3.51008 4.04278,2.96532 13.68125,7.60502 15.05744,12.42163 0.15549,0.5442 0.46801,0.98024 0.46801,1.53854"
       id="path121" />
    <path
       style="fill:#000000;stroke-width:0.264583"
       d="m 42.953119,196.74523 c 31.363504,-4.68143 24.797292,22.53767 24.797292,22.53767 l -19.07655,25.32788 45.333535,-34.73459"
       id="path186" />
  </g>
</svg>
