<?xml version="1.0" encoding="UTF-8" standalone="no"?>
<!-- Created with Inkscape (http://www.inkscape.org/) -->

<svg
   width="240mm"
   height="120mm"
   viewBox="0 0 240 120"
   version="1.1"
   id="svg8"
   inkscape:version="1.2.2 (b0a8486541, 2022-12-01)"
   sodipodi:docname="graphboi.svg"
   xmlns:inkscape="http://www.inkscape.org/namespaces/inkscape"
   xmlns:sodipodi="http://sodipodi.sourceforge.net/DTD/sodipodi-0.dtd"
   xmlns="http://www.w3.org/2000/svg"
   xmlns:svg="http://www.w3.org/2000/svg"
   xmlns:rdf="http://www.w3.org/1999/02/22-rdf-syntax-ns#"
   xmlns:cc="http://creativecommons.org/ns#"
   xmlns:dc="http://purl.org/dc/elements/1.1/">
  <defs
     id="defs2" />
  <sodipodi:namedview
     id="base"
     pagecolor="#ffffff"
     bordercolor="#666666"
     borderopacity="1.0"
     inkscape:pageopacity="0.0"
     inkscape:pageshadow="2"
     inkscape:zoom="0.99437388"
     inkscape:cx="284.6012"
     inkscape:cy="184.53823"
     inkscape:document-units="mm"
     inkscape:current-layer="layer1"
     showgrid="false"
     showborder="true"
     width="200mm"
     showguides="true"
     inkscape:guide-bbox="true"
     inkscape:window-width="630"
     inkscape:window-height="1048"
     inkscape:window-x="709"
     inkscape:window-y="26"
     inkscape:window-maximized="1"
     inkscape:showpageshadow="2"
     inkscape:pagecheckerboard="0"
     inkscape:deskcolor="#d1d1d1">
    <inkscape:grid
       type="xygrid"
       id="grid815"
       units="mm"
       spacingx="10"
       spacingy="10"
       empspacing="4"
       dotted="false" />
  </sodipodi:namedview>
  <metadata
     id="metadata5">
    <rdf:RDF>
      <cc:Work
         rdf:about="">
        <dc:format>image/svg+xml</dc:format>
        <dc:type
           rdf:resource="http://purl.org/dc/dcmitype/StillImage" />
        <dc:title />
      </cc:Work>
    </rdf:RDF>
  </metadata>
  <g
     inkscape:label="Layer 1"
     inkscape:groupmode="layer"
     id="layer1"
     transform="translate(0,-177)">
    <path
       style="opacity:0.174426;fill:#0d0b0b;fill-rule:evenodd;stroke:#e3a9a9;stroke-width:49.9999"
       id="path187"
       d="m 35.753257,212.03423 c 5.462508,-0.83063 11.019975,-0.70407 16.515825,-0.33315 2.990464,0.52914 5.686216,1.85333 8.240639,3.45792 0.06938,0.0436 -0.0063,0.18792 0.0578,0.23892 3.410035,2.46399 1.814983,1.23102 4.804024,3.67437 1.308023,1.1232 2.543725,2.33525 3.62745,3.67827 0.485307,0.60143 0.902047,1.25504 1.33753,1.89221 0.15566,0.16961 0.271174,0.38776 0.466979,0.50883 1.470988,0.90952 2.973538,1.77081 4.508532,2.56757 0.602162,0.31256 1.2588,0.50662 1.890556,0.75396 2.326116,0.9107 4.66611,1.78368 7.009783,2.64786 1.810332,0.54543 3.546412,1.47743 5.448411,1.68507 1.040895,0.11364 2.045402,0.0865 3.092001,0.0904 1.819248,-0.14956 3.804803,0.15927 5.59232,-0.31017 0.538361,-0.14138 2.118613,-0.78876 2.609593,-0.98397 0.46093,-0.20044 0.92417,-0.39562 1.38278,-0.6013 1.94175,-0.87085 1.19481,-0.58276 3.22609,-1.46582 2.13649,-0.9288 4.30035,-1.79459 6.44436,-2.70595 4.27348,-1.85121 8.4689,-3.87374 12.70281,-5.8119 3.31764,-1.53153 6.68504,-2.9646 10.13754,-4.16439 1.99412,-0.70218 4.08346,-1.17532 6.2125,-1.00412 1.4895,0.11978 2.68937,0.46097 4.14247,0.80113 2.22989,0.64163 4.35168,1.55194 6.38211,2.66827 0.45238,0.24872 -1.45671,-1.20572 -1.38422,-0.69459 0.0842,0.59387 0.97458,0.70082 1.43895,1.08047 0.39139,0.31997 0.75051,0.67751 1.12576,1.01626 1.48387,1.45546 2.57146,3.21465 3.50715,5.05541 0.23759,0.4674 0.44008,0.95235 0.68435,1.4163 0.31029,0.58936 0.65237,1.16143 0.97856,1.74214 0.89865,1.44712 1.32233,2.26941 2.47225,3.55007 0.44429,0.49479 0.87955,1.02622 1.44629,1.3741 1.60116,0.98285 3.26247,1.89072 5.00731,2.58734 0.65222,0.2604 4.27394,0.48587 4.85692,0.53121 0.88314,0.0634 1.7665,0.1237 2.6494,0.19032 1.98228,0.14956 2.75411,0.21474 4.68767,0.4 1.10241,0.10562 2.20044,0.2597 3.30512,0.33814 0.45303,0.0322 0.90781,0.0314 1.36171,0.0472 1.51266,0.009 3.06747,-0.17146 4.43347,-0.87162 0.96119,-0.49268 1.31592,-0.84646 2.16927,-1.52386 1.37787,-1.307 2.64713,-2.74914 3.6502,-4.36723 0.7366,-1.18823 0.94116,-1.69068 1.59715,-3.01294 1.56529,-3.87242 2.97317,-7.8062 4.29552,-11.7674 0,0 -3.29417,-1.80715 -3.29417,-1.80715 v 0 c -1.18174,3.98508 -2.48057,7.95036 -4.25149,11.71861 -1.4127,2.63672 -2.91698,5.23139 -5.2265,7.20084 -0.35786,0.27077 -0.69914,0.56497 -1.07357,0.81231 -1.60854,1.06259 -3.47916,1.40469 -5.38105,1.36168 -3.96116,-0.16799 -7.90307,-0.68655 -11.8629,-0.89368 -0.85241,-0.0799 -1.70908,-0.12298 -2.55724,-0.23961 -0.77213,-0.10617 -1.68364,-0.90686 -2.29867,-0.42811 -0.47185,0.3673 1.67624,1.66122 1.38656,1.13813 -0.32264,-0.5826 -1.0355,-0.84386 -1.49209,-1.32868 -1.16965,-1.24198 -1.57883,-2.05434 -2.47009,-3.48476 -0.31341,-0.56665 -0.64195,-1.12519 -0.94023,-1.69995 -0.24354,-0.46926 -0.44927,-0.9573 -0.68454,-1.43076 -0.92793,-1.86735 -1.9703,-3.67396 -3.44476,-5.17185 -0.38265,-0.35409 -0.7482,-0.72759 -1.14794,-1.06226 -2.03811,-1.70631 -3.92166,-2.66175 -6.42748,-4.08549 -2.02348,-1.1497 -4.22507,-1.93981 -6.44686,-2.60384 -1.54736,-0.34671 -2.65419,-0.66018 -4.23677,-0.76366 -2.16708,-0.1417 -4.29329,0.35488 -6.31537,1.08777 -3.42574,1.26279 -6.79683,2.68575 -10.10644,4.22624 -4.20116,1.97585 -8.36907,4.026 -12.6473,5.83347 -3.71911,1.56406 -7.4741,3.03946 -11.156022,4.691 -0.843018,0.31982 -1.714685,0.68518 -2.598121,0.89005 -1.790075,0.41512 -3.678824,0.19677 -5.493361,0.30277 -1.261843,-0.0341 -1.894366,-0.0102 -3.114421,-0.18938 -1.830355,-0.26882 -3.527623,-1.1075 -5.284237,-1.63627 -2.354405,-0.85822 -4.706241,-1.72277 -7.023486,-2.67834 -0.652767,-0.26919 -2.138979,-1.51674 -1.945621,-0.83764 0.224832,0.78965 1.361844,0.92177 2.081895,1.31626 0.192704,0.10557 -0.32538,-0.29538 -0.488069,-0.44307 -0.469241,-0.65336 -0.899639,-1.33778 -1.406816,-1.96327 -1.130681,-1.39444 -2.423282,-2.64999 -3.786458,-3.81489 -1.706287,-1.39435 -3.018618,-2.53683 -4.894707,-3.75288 -1.991188,-1.29066 -4.025675,-2.51408 -6.067136,-3.72365 -2.657539,-1.57461 -5.36475,-2.98513 -8.461981,-3.42413 -5.594715,-0.27309 -11.205845,-0.27678 -16.788765,0.2358 0,0 3.231275,2.27311 3.231275,2.27311 z" />
    <circle
       id="path189"
       style="fill:#0d0b0b;stroke:#e3a9a9;stroke-width:0.264583"
       cx="68.822235"
       cy="311.98685"
       r="6.6976328" />
  </g>
</svg>
